<svg width="40px" height="32px" viewBox="0 0 570 420" xmlns="http://www.w3.org/2000/svg">
	<g>
		<g transform="translate(35,235) scale(0.05,-0.05)">
			<path d="M3939.9,2544.6c-743.1-192-790.6-207.8-847-273.3c-106.2-124.2-70-248.5,112.9-402.1c67.8-56.5,122-108.4,122-115.2c2.3-6.8-112.9-29.4-255.2-51.9l-255.2-40.7l-591.8,388.5l-589.5,388.5L958.3,2391c-372.7-27.1-702.5-61-734.1-74.5c-67.8-31.6-124.2-124.2-124.2-207.8c0-63.2,167.1-316.2,637-969C1389.7,233.9,1782.8-242.7,1997.3-385C2275.2-572.5,2745-680.9,3461-726c164.9-11.3,304.9-24.9,311.7-31.6c6.8-6.8-146.8-284.6-341.1-616.7c-194.3-334.3-356.9-632.4-365.9-661.8c-20.3-79.1,49.7-203.3,135.5-239.4c135.5-56.5,451.7-88.1,885.4-85.8c472.1,2.3,528.5,13.5,747.6,144.6c334.3,201,1048,851.5,1450.1,1319.1c106.2,124.2,194.3,228.1,196.5,230.4c0,0,397.5,29.4,880.9,61c1014.2,70,1163.3,85.8,1429.8,162.6c1061.6,307.2,1447.9,1253.6,772.5,1890.5c-169.4,160.4-379.5,293.6-614.4,386.2c-81.3,31.6-155.8,58.7-162.6,58.7c-9,0-67.8,40.7-131,90.4c-341.1,271-928.3,431.4-1452.4,397.5c-124.2-6.8-582.8-74.5-1018.7-149.1l-792.8-133.3l-585,237.2c-320.7,131-609.9,241.7-641.5,246.2C4134.1,2585.2,4032.5,2569.4,3939.9,2544.6z M4312.5,2038.6c88.1-36.1,167.1-70,176.2-79.1c9-9-110.7-36.1-268.8-63.2l-286.9-47.4l-85.8,72.3c-47.4,40.7-88.1,79.1-88.1,85.8c0,18.1,341.1,108.4,372.7,99.4C4145.4,2104.1,4226.7,2072.5,4312.5,2038.6z M2110.3,1575.6c445-295.9,594-384,650.5-384c38.4,0,998.4,160.4,2132.3,354.6l2062.2,354.6H7328c291.4,2.3,404.3-6.8,519.5-38.4c201-56.5,442.7-176.2,560.2-275.6c61-51.9,176.2-112.9,304.9-160.4c253-94.9,377.2-167.1,521.8-300.4C9695.1,694.7,9302.1,107.4,8446-50.7c-155.9-29.4-1592.4-131-1592.4-112.9c0,6.8,36.1,81.3,79.1,167.1c85.8,169.4,94.9,232.7,45.2,327.5c-42.9,85.8-117.5,110.7-361.4,122c-544.3,27.1-1445.6-56.5-1919.9-176.2c-343.3-88.1-365.9-103.9-506-343.3l-122-210.1h-250.7c-449.5,0-1018.7,67.8-1301,155.8C2300-53,2193.9,26.1,1992.8,261c-201,234.9-650.5,822.2-650.5,847c0,9,56.5,15.8,124.2,15.8c314,0,458.5,212.3,271,399.8l-79.1,79.1l-198.8-13.6c-108.4-9-253-20.3-323-27.1l-126.5-13.6l-126.5,178.4c-67.8,97.1-117.5,178.4-110.7,182.9c27.1,9,481.1,42.9,623.4,47.4l135.5,2.3L2110.3,1575.6z M6307-145.6c-347.8-494.7-1389.1-1515.6-1741.5-1705.4c-97.1-51.9-874.1-74.5-874.1-24.8c0,15.8,212.3,395.3,472.1,842.5l474.3,813.1l142.3,38.4C5114.4-89.1,5710.7-14.6,6182.8-7.8l221.3,2.3L6307-145.6z"/>
			<path d="M7235.4,1645.6c-61-63.3-76.8-110.7-65.5-216.8c6.8-70,153.6-205.6,280.1-262c153.6-65.5,485.6-85.8,605.3-36.1c158.1,67.8,196.5,262,72.3,379.5c-52,47.4-79.1,54.2-255.3,56.5c-185.2,0-207.8,4.5-311.7,72.3C7416.1,1731.4,7323.4,1733.7,7235.4,1645.6z"/>
			<path d="M6288.9,1437.8c-162.6-33.9-262-230.4-194.2-388.5c97.1-237.2,445-223.6,530.8,20.3c38.4,110.7,22.6,189.7-61,280.1C6492.2,1431,6397.4,1460.4,6288.9,1437.8z"/>
			<path d="M5008.2,1214.2c-144.6-88.1-189.7-219.1-124.2-365.9c45.2-106.2,149.1-176.2,257.5-176.2c135.5,0,289.1,155.8,289.1,293.6c0,140-153.6,293.6-293.6,293.6C5105.4,1259.4,5048.9,1239,5008.2,1214.2z"/>
			<path d="M3768.2,1013.2c-149.1-90.4-180.7-291.4-63.2-429.2c207.8-246.2,600.8,0,476.6,298.1C4116,1038,3915,1103.5,3768.2,1013.2z"/>
		</g>
	</g>
</svg>